# xmcd CD database file
#
# Track frame offsets:
#	150
#	21190
#	41865
#	68332
#	93305
#	109760
#	132047
#	158337
#	183800
#	205370
#	231975
#
# Disc length: 3332 seconds
#
# Revision: 0
# Processed by: cddbd v1.5PL3 Copyright (c) Steve Scherf et al.
# Submitted via: CDex 1.51
#
DISCID=850d020b
DTITLE=緒方恵美 - MARINE LEGEND
DYEAR=1995
DGENRE=Pop
TTITLE0=海神
TTITLE1=正直さの内側
TTITLE2=Deen Blue
TTITLE3=Gentle Night
TTITLE4=Sailing to you
TTITLE5=6月のバレード
TTITLE6=in summer day
TTITLE7=ボートにのった日
TTITLE8=青い宝石の君
TTITLE9=MERMAID DREAM
TTITLE10=純情波乗少年
EXTD=YEAR: 1995/04/21
EXTT0=
EXTT1=
EXTT2=
EXTT3=
EXTT4=
EXTT5=
EXTT6=
EXTT7=
EXTT8=
EXTT9=
EXTT10=
PLAYORDER=
